<svg xmlns="http://www.w3.org/2000/svg"
shape-rendering="geometricPrecision"
width="4000" height="4000" viewBox="0 0 1024 1024"><rect width="100%" height="100%" fill="#FEFEFD" />
  <metadata>null</metadata>

<path d="
M 162.802 747.85
C 166.198 747.979 169.61 747.913 173.009 747.905
C 174.24 747.903 176.342 747.419 177.424 747.915
C 178.052 750.067 179.717 752.087 180.791 754.053
C 183.23 758.516 185.71 762.957 188.138 767.428
C 192.25 774.997 196.237 782.638 200.31 790.229
C 202.584 794.467 204.638 798.946 207.258 802.984
C 207.815 802.963 208.935 800.274 209.212 799.748
C 211.021 796.311 212.828 792.867 214.657 789.438
C 222.055 775.57 229.479 761.645 237.156 747.941
C 238.249 747.342 240.251 747.78 241.51 747.802
C 244.969 747.861 249.206 747.1 252.564 747.874
C 252.947 750.712 252.455 753.983 252.508 756.879
C 252.642 764.252 252.637 771.627 252.632 779.001
C 252.617 798.451 252.93 817.933 252.641 837.375
C 249.124 838.239 244.576 837.31 240.94 837.443
C 240.173 836.146 240.758 833.448 240.764 831.949
C 240.781 827.3 240.758 822.651 240.75 818.002
C 240.731 807.002 240.769 796.002 240.793 785.002
C 240.807 778.642 241.209 772.163 240.553 765.838
C 239.642 766.189 238.618 768.321 238.11 769.21
C 236.056 772.802 234.082 776.44 232.04 780.041
C 227.148 788.667 222.363 797.414 217.782 806.209
C 215.04 811.473 212.584 817.218 209.193 822.1
C 207.788 822.45 206.179 822.153 204.752 822.095
C 203.829 821.122 203.418 819.509 202.768 818.33
C 200.952 815.039 199.287 811.659 197.537 808.331
C 192.613 798.967 187.379 789.767 182.428 780.418
C 180.553 776.878 178.622 773.355 176.846 769.767
C 176.543 769.154 175.437 766.366 174.773 766.146
C 174.551 766.072 174.478 767.942 174.46 768.134
C 174.27 770.215 174.331 772.344 174.373 774.431
C 174.485 779.96 174.719 785.469 174.716 791.004
C 174.711 801.672 174.703 812.339 174.721 823.007
C 174.727 826.173 174.743 829.339 174.75 832.504
C 174.752 833.96 174.443 835.879 174.807 837.266
C 170.943 837.089 166.97 837.27 163.106 837.414
C 162.248 836.89 162.816 833.095 162.82 832.001
C 162.842 826.5 162.862 820.998 162.862 815.497
C 162.862 799.998 162.846 784.5 162.808 769.001
C 162.791 761.964 163.066 754.882 162.802 747.85 Z"
opacity="1" fill="rgb(33,89,144)" fill-rule="evenodd" />
<path d="
M 709.781 432.291
C 704.807 436.212 699.945 439.983 694.307 442.964
C 665.627 458.127 632.203 458.378 601.157 451.074
C 584.961 447.263 569.342 441.149 553.099 437.653
C 535.764 433.921 516.713 436.66 500.26 443.01
C 496.711 444.38 493.005 445.347 489.449 446.703
C 488.278 447.149 486.083 447.904 485.496 448.998
C 490.586 450.848 496.053 451.245 501.054 453.475
C 503.534 454.58 506.001 455.831 508.369 457.158
C 509.547 457.817 510.79 458.841 512.154 459.045
C 513.736 459.282 515.687 458.602 517.244 458.327
C 519.96 457.846 522.711 457.621 525.456 457.378
C 538.967 456.184 555.014 457.654 562.033 471.126
C 563.734 474.392 564.076 477.449 564.53 481.009
C 565.14 481.201 565.867 481.127 566.51 481.186
C 575.267 481.902 583.865 484.099 592.425 485.971
C 611.819 490.211 632.039 494.244 651.978 493.044
C 663.867 492.329 675.517 490.039 686.777 486.138
C 700.104 481.522 712.742 475.419 726.931 473.84
C 748.213 471.472 769.736 474.51 790.921 476.435
C 794.388 476.751 797.902 477.158 801.352 477.625
C 802.851 477.828 804.653 477.777 806.069 478.33
C 808.906 479.437 809.428 483.182 806.952 484.934
C 805.163 485.761 802.581 484.875 800.736 484.565
C 796.661 483.879 792.492 483.541 788.391 483.006
C 773.961 481.125 759.157 479.934 744.604 479.9
C 733.896 479.876 722.981 480.545 712.712 483.789
C 708.025 485.269 703.584 487.419 698.991 489.147
C 691.342 492.026 683.632 494.802 675.67 496.688
C 668.249 498.446 660.621 499.616 653 499.938
C 650.503 500.044 648.008 500.203 645.508 500.177
C 643.649 500.158 641.465 499.906 639.683 500.448
C 640.606 501.426 642.097 501.762 643.271 502.403
C 646.272 504.039 649.4 505.458 652.361 507.166
C 662.681 513.118 673.04 518.993 683.382 524.908
C 716.135 543.64 748.246 563.487 780.998 582.215
C 792.61 588.854 804.44 595.315 815.831 602.32
C 818.398 603.899 821.062 605.322 823.613 606.925
C 824.924 607.748 826.35 608.63 826.376 610.338
C 826.439 614.439 820.606 613.727 817.844 613.762
C 808.035 613.886 798.212 614.521 788.404 614.837
C 746.662 616.181 704.958 618.569 663.203 619.743
C 642.856 620.315 622.52 621.615 602.181 622.233
C 567.75 623.279 533.339 624.784 498.937 626.385
C 482.222 627.162 465.325 627.062 448.642 628.449
C 443.54 628.873 438.353 628.946 433.235 629.133
C 431.128 629.21 428.217 629.772 426.177 629.157
C 424.693 628.71 423.108 627.169 421.811 626.316
C 418.511 624.144 415.193 622.001 411.896 619.826
C 401.696 613.096 391.675 606.089 381.523 599.286
C 349.038 577.515 316.247 556.203 283.813 534.364
C 257.2 516.444 230.294 498.915 203.436 481.364
C 197.174 477.272 190.988 472.993 184.516 469.238
C 182.148 467.863 178.592 466.346 180.09 463.02
C 181.448 460.003 187.161 461.088 189.966 461.068
C 199.569 461 209.225 460.597 218.82 460.18
C 248.59 458.884 278.381 458.029 308.158 456.893
C 319.201 456.472 330.437 456.859 341.432 455.99
C 341.744 440.718 345.303 425.525 347.758 410.479
C 350.93 391.036 354.117 371.413 359.027 352.323
C 361.015 344.593 363.184 336.968 365.656 329.379
C 367.46 323.838 369.976 318.124 374.366 314.121
C 380.758 308.295 389.26 305.91 397.145 302.816
C 408.132 298.505 419.073 294.106 430.006 289.665
C 434.309 287.917 438.919 286.59 443.102 284.59
C 444.022 283.07 443.938 279.807 444.243 278.031
C 444.961 273.84 445.963 269.606 447.196 265.535
C 450.969 253.075 456.254 241.254 462.514 229.857
C 464.766 225.756 467.193 221.61 469.836 217.749
C 470.836 216.289 472.592 214.7 474.421 216.084
C 476.662 217.78 476.57 220.199 476.6 222.761
C 476.649 226.891 476.805 230.998 477.121 235.114
C 477.214 236.34 477.004 238.656 477.726 239.675
C 478.305 238.45 478.212 236.933 478.356 235.601
C 478.607 233.276 479 230.972 479.326 228.658
C 480.256 222.059 481.961 215.471 484.546 209.327
C 487.944 201.251 493.613 194.529 499.227 187.928
C 505.269 180.823 511.614 174.003 518.113 167.31
C 522.838 162.445 527.632 157.664 532.5 152.941
C 534.373 151.123 537.052 148.725 539.354 151.544
C 540.532 152.987 539.394 155.792 539.107 157.392
C 538.215 162.372 536.71 167.416 536.956 172.524
C 537.577 172.425 538.124 170.171 538.361 169.636
C 539.769 166.457 541.171 163.177 542.352 159.906
C 544.692 153.428 547.527 146.449 551.615 140.862
C 554.558 136.84 558.614 133.543 562.486 130.45
C 579.511 116.851 597.368 104.13 615.478 92.021
C 619.963 89.023 624.523 86.154 629.06 83.237
C 630.931 82.033 633.098 79.968 635.461 80.103
C 637.027 80.193 638.747 81.409 638.708 83.08
C 638.664 85.01 637.552 86.898 636.847 88.65
C 635.739 91.405 634.88 94.255 634.13 97.125
C 633.52 99.465 633.629 102.836 632.45 104.923
C 633.441 104.674 634.287 101.685 634.705 100.798
C 636.493 97.003 638.668 93.383 640.819 89.785
C 646.932 79.559 655.612 72.016 665.86 66.131
C 681.206 57.317 697.531 49.512 714.816 45.37
C 721.786 43.7 731.035 41.651 737.863 44.829
C 746.137 48.68 748.16 59.332 748.182 67.53
C 748.219 80.922 743.355 93.553 737.695 105.487
C 734.869 111.444 731.674 117.446 728.012 122.935
C 724.792 127.76 720.096 129.751 714.862 131.844
C 710.424 133.62 705.987 135.358 701.459 136.9
C 698.899 137.772 696.374 138.735 693.808 139.587
C 692.648 139.972 691.007 140.099 690.278 141.173
C 692.15 141.511 694.263 140.912 696.121 140.594
C 699.967 139.935 703.851 139.31 707.631 138.327
C 710.348 137.621 713.865 136.769 715.734 139.513
C 715.996 141.836 714.473 143.386 713.1 145.016
C 711.75 146.619 710.554 148.361 709.252 150.003
C 702.406 158.638 695.496 167.21 688.625 175.823
C 674.383 193.674 658.847 210.518 643.2 227.126
C 639.317 231.247 635.367 235.315 631.497 239.448
C 627.782 243.414 623.971 247.804 619.158 250.491
C 614.033 253.353 608.155 254.539 602.531 255.951
C 593.901 258.118 585.289 260.371 576.55 262.033
C 576.416 262.642 577.671 262.581 578.073 262.578
C 579.717 262.567 581.328 262.637 582.963 262.643
C 588.097 262.664 593.262 262.128 598.38 261.766
C 600.301 261.63 602.886 261.552 603.985 263.505
C 604.205 265.74 601.936 267.347 600.497 268.691
C 597.662 271.337 594.794 273.948 591.946 276.58
C 590.497 277.919 589.061 279.634 587.378 280.654
C 587.262 281.046 589.388 281.558 589.85 281.754
C 592.802 283.006 595.925 283.882 598.9 285.086
C 611.358 290.13 624.16 294.351 636.768 298.997
C 658.174 306.884 680.296 313.763 702.773 317.813
C 717.645 320.493 732.639 321.358 747.716 321.715
C 762.907 322.074 778.084 320.962 793.241 320.267
C 796.372 320.123 799.496 319.84 802.626 319.694
C 804.787 319.594 806.701 319.83 807.396 322.208
C 808.798 327.006 803.723 326.792 800.483 327.051
C 791.626 327.756 782.662 328.064 773.78 328.28
C 757.124 328.684 740.143 329.553 723.54 327.612
C 703.947 325.322 685.076 321.268 666.115 315.856
C 646.137 310.154 626.731 302.604 607.26 295.415
C 601.723 293.371 596.177 291.366 590.648 289.3
C 588.138 288.362 584.794 286.36 582.121 286.304
C 579.503 287.627 577.078 290.177 574.723 291.959
C 569.56 295.866 564.262 299.582 558.831 303.11
C 543.807 312.872 528.28 321.126 511.742 328.02
C 506.386 330.252 500.912 331.999 495.396 333.77
C 493.202 334.474 489.843 334.97 488.178 336.614
C 486.863 337.912 486.376 340.152 485.884 341.883
C 484.167 342.172 482.225 342.115 480.479 342.028
C 479.808 341.058 480.332 339.511 480.208 338.372
C 476.036 338.96 472.008 340.196 467.867 340.996
C 465.873 341.381 463.292 341.37 461.482 342.364
C 460.193 343.071 459.283 344.972 458.454 346.149
C 456.311 349.191 453.855 352.31 452.094 355.582
C 454.681 355.774 458.256 354.28 460.719 353.502
C 466.823 351.575 473.04 348.993 479.332 347.795
C 479.356 346.158 479.146 344.483 479.421 342.86
C 480.956 342.692 482.602 342.718 484.158 342.664
C 484.654 342.647 485.495 342.461 485.908 342.678
C 485.378 346.36 486.158 350.581 486.62 354.252
C 487.186 358.764 487.68 363.615 489.011 367.973
C 492.158 367.034 495.097 365.342 498.054 363.942
C 503.512 361.359 509.16 358.647 513.866 354.808
C 514.167 353.415 513.678 351.659 513.663 350.22
C 513.622 346.383 513.894 342.651 514.508 338.866
C 514.755 337.348 514.883 335.579 515.61 334.21
C 517.21 332.988 521.019 332.69 521.757 335.19
C 522.087 336.308 521.748 337.793 521.653 338.928
C 521.418 341.736 521.005 344.465 521.254 347.283
C 523.145 347.033 524.19 345.536 525.222 344.091
C 527.08 341.493 528.666 338.043 530.955 335.831
C 533.522 334.514 537.234 337.045 536.686 339.934
C 536.438 341.241 535.413 342.299 534.644 343.334
C 533.133 345.365 531.603 347.434 529.914 349.323
C 521.031 359.251 509.419 366.83 497.21 372.17
C 480.703 379.391 463.434 384.626 446.901 391.749
C 427.862 399.951 409.583 410.485 393.009 422.957
C 390.684 424.707 388.332 426.425 386.03 428.206
C 384.611 429.303 383.137 430.374 381.806 431.578
C 380.103 433.119 378.565 434.743 377.044 436.463
C 376.939 436.582 375.687 438.081 375.886 438.163
C 376.389 438.371 377.119 437.603 377.479 437.361
C 379.095 436.275 380.879 435.551 382.639 434.757
C 387.099 432.745 391.449 430.391 396.146 428.963
C 398.429 428.269 401.388 427.689 403.711 428.476
C 407.294 429.69 409.429 432.737 411.407 435.772
C 414.186 440.039 417.308 444.583 418.806 449.497
C 419.657 452.288 420.358 455.062 418.825 457.788
C 417.025 460.988 413.498 462.863 410.462 464.693
C 405.458 467.71 400.191 470.93 394.797 473.156
C 396.46 473.948 399.696 472.98 401.442 472.674
C 407.003 471.701 412.301 469.954 417.654 468.215
C 439.049 461.265 459.221 451.302 480.024 442.886
C 501.058 434.376 524.09 427.436 546.997 429.96
C 561.234 431.528 574.561 436.908 588.208 440.828
C 603.51 445.222 619.543 448.449 635.503 448.779
C 653.443 449.151 670.945 447.174 687.191 439.015
C 691.514 436.845 695.741 434.322 699.609 431.41
C 701.769 429.784 703.753 427.382 706.108 426.078
C 708.956 424.5 712.873 427.571 711.28 430.63
C 710.773 431.174 710.252 431.715 709.781 432.291 Z
M 195.576 467.865
C 197.261 469.724 199.828 471.072 201.957 472.383
C 204.93 474.214 207.869 476.105 210.786 478.023
C 221.948 485.36 233.218 492.537 244.359 499.905
C 280.759 523.976 317.307 547.864 353.464 572.3
C 370.381 583.734 387.429 594.97 404.316 606.448
C 409.318 609.849 414.449 613.119 419.325 616.697
C 421.629 618.388 424.532 621.177 427.238 622.105
C 428.522 622.545 430.4 622.095 431.736 622.024
C 435.035 621.85 438.336 621.817 441.636 621.662
C 452.844 621.136 464.074 620.566 475.289 620.263
C 515.995 619.162 556.674 616.631 597.377 615.341
C 644.493 613.848 691.601 611.652 738.7 609.654
C 754.38 608.989 770.08 608.249 785.767 607.786
C 791.063 607.629 796.354 607.443 801.647 607.179
C 803.314 607.095 805.002 606.856 806.667 606.884
C 807.306 606.895 807.953 606.904 808.589 606.965
C 808.597 606.966 809.63 607.018 809.423 606.845
C 807.826 605.49 805.379 604.507 803.543 603.432
C 799.007 600.776 794.52 598.04 789.973 595.401
C 776.531 587.598 763.082 579.804 749.668 571.954
C 731.237 561.168 712.951 550.136 694.534 539.326
C 672.123 526.171 649.465 513.453 627.01 500.378
C 621.749 497.315 615.171 497.125 609.209 496.132
C 598.891 494.414 588.658 492.226 578.426 490.064
C 574.642 489.264 570.737 488.421 566.893 487.992
C 566 487.892 563.857 487.444 563.286 488.1
C 562.786 489.462 562.376 490.925 561.51 492.111
C 557.85 497.122 551.21 498.607 545.465 499.826
C 540.545 500.87 535.513 501.675 530.507 502.187
C 527.767 502.467 524.512 502.008 521.901 502.902
C 520.773 504.422 519.743 505.938 518.128 506.999
C 514.541 509.355 510.149 509.447 506.035 508.805
C 499.381 507.766 492.933 505.609 486.612 503.348
C 484.27 502.51 481.61 500.74 479.16 500.446
C 476.083 503.547 473.934 507.414 469.436 508.664
C 461.657 510.825 454.49 507.107 447.525 504.035
C 434.742 498.396 421.478 492.244 410.099 484.067
C 408.062 482.603 406.504 480.693 404.622 479.092
C 398.505 479.609 392.344 480.988 386.284 479.265
C 383.27 478.409 380.86 476.033 377.998 475.164
C 370.907 486.617 363.555 497.764 355.006 508.22
C 353.398 510.188 351.839 512.231 350.035 514.027
C 347.601 516.45 345.033 518.391 342.992 521.202
C 341.082 523.833 339.459 526.644 337.732 529.393
C 337.026 530.518 336.235 532.263 335.144 533.058
C 333.314 534.391 329.754 533.106 329.209 531.015
C 329.276 528.593 330.955 526.352 332.104 524.294
C 334.527 519.952 337.384 515.801 339.414 511.25
C 341.196 507.254 337.683 503.111 338.977 499.1
C 339.787 496.59 342.149 493.904 343.516 491.62
C 346.537 486.578 349.526 481.506 352.443 476.405
C 353.762 474.1 355.458 471.886 356.522 469.456
C 351.901 468.406 349.026 465.083 345.176 462.728
C 343.621 462.333 341.845 462.657 340.254 462.703
C 336.738 462.804 333.238 463.031 329.725 463.185
C 319.221 463.644 308.688 463.85 298.187 464.208
C 284.993 464.657 271.644 464.492 258.49 465.564
C 248.699 466.362 238.787 465.825 228.989 466.546
C 221.717 467.081 214.289 467.069 206.996 467.263
C 203.213 467.364 199.309 467.194 195.576 467.865 Z
M 345.441 500.566
C 344.965 502.918 346.063 505.553 347.025 507.662
C 348.902 505.554 350.456 503.028 352.194 500.783
C 357.333 494.147 362.31 487.722 366.874 480.658
C 368.36 478.358 369.767 476.005 371.231 473.69
C 371.705 472.94 372.994 471.41 372.977 470.476
C 372.962 469.716 371.942 468.788 371.516 468.227
C 370.261 466.575 369.587 464.81 368.578 463.037
C 367.037 463.388 366.487 464.492 365.793 465.796
C 364.585 468.065 363.39 470.338 362.136 472.582
C 358.551 478.993 355.047 485.494 351.241 491.778
C 349.423 494.78 347.11 497.483 345.441 500.566 Z
M 348.941 443.093
C 348.824 443.957 348.699 444.818 348.606 445.684
C 349.679 445.564 350.911 445.335 351.935 445.006
C 352.832 443.939 352.729 440.901 352.964 439.507
C 353.893 433.986 354.965 428.25 354.638 422.658
C 353.988 422.266 352.856 422.418 352.124 422.518
C 351.027 429.323 350.549 436.388 348.941 443.093 Z
M 348.852 452.963
C 348.771 453.146 348.69 453.329 348.61 453.512
C 348.974 457.752 352.307 460.236 355.87 462.16
C 356.779 462.651 358.307 463.565 359.363 463.349
C 361.242 461.119 364.553 458.575 365.686 455.906
C 365.878 454.123 365.534 452.27 365.568 450.473
C 365.639 446.738 366.24 442.75 367.77 439.321
C 370.163 433.959 374.537 429.04 378.798 425.071
C 381.084 422.942 383.664 421.033 385.722 418.671
C 387.604 416.512 388.698 413.407 389.981 410.866
C 391.444 407.97 393.326 405.246 394.688 402.312
C 395.407 400.765 394.129 400 393.111 398.95
C 391.244 397.025 388.545 394.762 387.939 392.023
C 387.483 389.962 389.874 387.84 391.892 388.384
C 393.623 388.85 395.077 390.99 396.387 392.141
C 396.842 392.54 397.593 393.464 398.252 393.257
C 402.625 386.877 405.599 379.677 408.655 372.62
C 410.665 367.979 412.853 362.662 412.64 357.516
C 412.426 352.342 409.25 347.198 406.723 342.834
C 405.871 341.362 403.782 338.712 404.797 336.958
C 407.113 332.958 409.98 335.902 411.604 338.578
C 415.191 344.49 417.327 350.296 418.971 356.956
C 421.103 357 423.247 357.494 425.391 357.376
C 426.257 356.426 426.764 355.099 427.463 354.02
C 429.106 351.482 430.776 348.961 432.434 346.432
C 435.671 341.497 439.752 336.857 442.689 331.768
C 442.9 330.829 442.255 329.821 442.052 328.911
C 441.697 327.323 441.481 325.691 441.385 324.067
C 440.98 317.169 440.983 310.245 441.32 303.344
C 441.444 300.799 441.714 298.271 441.981 295.739
C 442.079 294.814 442.597 293.47 442.224 292.584
C 428.265 297.537 414.622 303.567 400.773 308.858
C 396.827 310.365 392.939 312.022 389.023 313.606
C 385.186 315.159 381.392 316.611 378.438 319.62
C 375.121 322.997 373.417 327.415 371.952 331.827
C 370.311 336.768 368.871 341.779 367.493 346.802
C 361.445 368.861 357.711 391.629 353.662 414.121
C 355.986 415.995 359.149 416.689 360.488 419.721
C 361.369 421.716 361.021 424.611 360.913 426.735
C 360.627 432.314 359.701 437.795 358.77 443.296
C 358.367 445.678 358.051 448.928 355.938 450.477
C 353.657 451.55 351.107 451.727 348.852 452.963 Z
M 372.38 448.562
C 371.926 454.708 374.532 461.787 378.79 466.232
C 380.024 467.521 382.602 469.759 384.482 469.923
C 387.027 470.145 390.203 467.737 392.434 466.721
C 397.591 464.373 402.764 462.207 407.582 459.176
C 409.524 457.955 412.147 456.591 413.329 454.538
C 414.366 452.736 412.778 450.759 411.872 449.242
C 409.731 445.657 407.831 441.951 405.463 438.502
C 404.67 437.347 403.52 435.216 402.046 434.868
C 399.036 434.158 395.92 436.028 393.283 437.164
C 389.548 438.773 385.967 440.768 382.309 442.55
C 379.003 444.161 375.424 445.679 372.561 448.022
C 372.501 448.202 372.44 448.382 372.38 448.562 Z
M 396.942 411.093
C 396.981 412.058 398.296 410.747 398.68 410.492
C 400.409 409.343 402.22 408.325 403.957 407.19
C 406.705 405.395 410.012 403.897 412.478 401.733
C 415.495 399.087 417.611 395.119 419.776 391.791
C 430.568 375.201 441.7 358.823 453.228 342.738
C 487.593 294.786 523.89 248.04 564.596 205.242
C 566.919 202.779 569.223 200.284 571.586 197.859
C 582.421 186.441 593.472 175.106 604.876 164.258
C 608.7 160.62 612.566 157.04 616.423 153.439
C 617.915 152.046 619.611 150.82 620.992 149.313
C 621.166 149.122 622.422 147.857 622.187 147.757
C 620.702 148.275 620.075 149.618 618.848 150.34
C 615.643 152.226 613.046 154.85 610.33 157.368
C 607.308 160.168 604.168 162.838 601.185 165.679
C 585.911 180.221 570.456 194.544 555.65 209.584
C 517.587 248.247 481.618 289.177 449.742 333.116
C 439.37 347.414 429.691 362.354 420.042 377.147
C 412.591 388.571 403.719 399.264 396.942 411.093 Z
M 412.294 476.981
C 415.068 480.701 420.857 482.895 424.785 485.151
C 426.86 486.343 429.212 488.16 431.44 488.951
C 431.686 488.274 431.347 487.204 431.429 486.466
C 431.764 483.463 432.845 479.99 435.3 478.041
C 441.593 473.043 451.065 477.964 457.221 480.83
C 459.294 481.796 462.261 482.768 463.628 484.734
C 464.408 485.855 464.182 488.277 464.295 489.611
C 464.542 492.526 465.144 495.427 465.992 498.226
C 466.367 499.465 466.698 501.847 468.348 501.842
C 472.727 499.604 475.263 493.337 475.807 488.76
C 477.288 476.298 471.914 466.125 463.019 457.751
C 461.72 457.46 459.844 458.926 458.688 459.48
C 455.755 460.886 452.682 462.067 449.668 463.295
C 437.371 468.304 424.94 472.939 412.294 476.981 Z
M 417.004 369.078
C 416.895 369.59 416.788 370.093 416.708 370.611
C 416.828 370.993 418.603 368.69 418.816 368.383
C 419.529 367.359 420.164 366.277 421.02 365.368
C 421.265 365.109 421.999 364.628 421.709 364.249
C 420.716 364.472 419.342 364.318 418.461 364.844
C 417.911 366.23 417.49 367.669 417.004 369.078 Z
M 425.854 393.658
C 426.275 394.115 428.501 392.65 429.041 392.387
C 432.351 390.775 435.674 389.217 439.032 387.705
C 453.086 381.377 467.442 375.698 482.226 371.301
C 482.307 369.171 481.03 366.525 480.628 364.411
C 480.153 361.912 479.947 359.373 479.511 356.87
C 479.362 356.013 479.546 354.887 479.169 354.13
C 471.9 357.015 464.377 359.974 456.812 361.979
C 454.604 362.564 452.314 362.916 450.052 363.207
C 448.944 363.349 447.465 363.277 446.505 363.922
C 445.418 364.652 444.652 366.147 443.955 367.22
C 442.548 369.386 441.125 371.542 439.72 373.71
C 435.313 380.512 430.519 387.045 425.854 393.658 Z
M 437.943 485.57
C 437.557 487.148 437.028 490.186 437.865 491.639
C 440.033 493.377 442.928 494.374 445.442 495.502
C 448.183 496.731 450.82 498.229 453.605 499.354
C 455.788 500.236 458.461 500.934 460.394 502.298
C 460.22 500.884 458.756 499.232 458.289 497.817
C 457.323 494.889 456.798 491.33 456.597 488.256
C 453.111 486.175 448.936 483.964 445.018 482.874
C 443.742 482.519 441.731 481.996 440.45 482.522
C 439.215 483.03 438.511 484.461 437.943 485.57 Z
M 712.889 125.196
C 715.641 124.18 719.006 122.821 721.113 120.708
C 724.103 117.707 725.972 113.216 727.979 109.543
C 734.119 98.305 739.9 85.29 740.719 72.33
C 741.12 65.988 741.882 56.116 735.955 51.906
C 733.32 50.035 729.729 50.489 726.688 50.709
C 719.223 51.25 711.666 53.155 704.676 55.777
C 700.654 57.286 696.673 58.807 692.73 60.513
C 690.984 61.269 688.77 61.859 687.303 63.094
C 682.823 64.76 678.477 67.168 674.302 69.484
C 662.53 76.016 652.567 83.814 645.367 95.362
C 641.114 102.182 636.792 108.839 633.323 116.109
C 631.844 119.207 630.414 124.731 627.238 126.502
C 625.956 126.813 624.251 126.384 623.239 125.581
C 621.995 123.049 622.925 118.927 623.226 116.232
C 624.144 108.002 626.243 100.184 627.975 92.128
C 626.054 92.622 623.953 94.688 622.277 95.748
C 617.318 98.884 612.65 102.481 607.759 105.723
C 597.086 112.799 586.693 120.491 576.557 128.317
C 567.094 135.622 557.595 142.475 552.161 153.435
C 545.964 165.935 541.446 179.221 536.47 192.225
C 535.165 195.636 534.275 204.658 528.915 203.402
C 525.499 202.602 526.784 196.38 526.987 193.847
C 527.504 187.399 528.076 180.964 528.894 174.545
C 529.294 171.401 530.323 168.112 530.261 164.942
C 523.778 170.837 518.065 177.385 512.111 183.804
C 502.229 194.455 491.897 205.771 487.888 220.067
C 484.776 231.16 483.682 242.745 482.534 254.176
C 482.16 257.899 483.085 264.42 479.403 266.792
C 475.299 267.534 474.611 264.223 473.98 260.916
C 472.675 254.086 472.098 247.145 471.137 240.269
C 470.828 238.058 470.494 235.838 470.246 233.619
C 470.179 233.021 470.327 231.487 469.559 231.651
C 468.276 234.427 466.295 236.936 464.892 239.687
C 461.857 245.64 459.325 251.841 456.905 258.063
C 450.969 273.323 448.584 290.206 448.268 306.495
C 448.156 312.249 447.56 318.339 448.424 324.049
C 449.052 323.67 449.222 322.781 449.619 322.19
C 450.732 320.535 452.078 319.043 453.196 317.389
C 456.582 312.381 460.57 307.736 464.155 302.866
C 474.416 288.928 485.905 275.677 497.26 262.625
C 522.358 233.776 548.756 205.903 576.584 179.664
C 589.978 167.035 603.308 154.217 617.488 142.462
C 633.894 128.862 650.826 115.941 667.727 102.966
C 669.992 101.228 672.315 99.564 674.562 97.801
C 676.099 96.596 677.863 94.962 679.739 94.34
C 683.14 93.212 685.319 97.605 684.777 100.356
C 683.073 102.936 679.686 105.128 677.335 107.131
C 672.405 111.331 667.521 115.656 662.794 120.079
C 646.156 135.648 628.603 150.353 612.441 166.423
C 604.168 174.65 595.887 182.881 587.485 190.971
C 580.404 197.789 574.064 205.368 567.304 212.492
C 545.955 234.991 525.708 258.714 506.527 283.083
C 501.146 289.919 495.417 296.486 490.143 303.409
C 485.959 308.901 482.092 314.635 477.908 320.123
C 474.412 324.709 470.684 329.355 467.609 334.231
C 468.424 334.445 469.158 333.906 469.927 333.722
C 471.576 333.326 473.26 333.065 474.912 332.67
C 481.318 331.137 487.878 329.363 494.094 327.183
C 519.982 318.105 543.916 305.659 566.113 289.519
C 572.317 285.007 578.353 280.133 584.098 275.05
C 585.595 273.725 587.103 272.425 588.555 271.052
C 589.101 270.534 589.774 270.176 589.995 269.431
C 586.402 268.698 582.262 269.353 578.587 269.164
C 572.017 268.827 565.636 267.849 559.126 267.01
C 555.828 266.585 549.42 266.76 549.127 262.336
C 549.029 260.851 549.895 259.375 551.328 258.867
C 554.869 257.613 559.564 257.856 563.305 257.28
C 579.363 254.807 595.372 251.895 610.827 246.775
C 616.775 244.805 620.655 240.742 624.946 236.442
C 628.465 232.917 632.024 229.429 635.267 225.644
C 640.162 219.932 645.599 214.638 650.638 209.05
C 657.927 200.968 665.143 192.854 672.261 184.624
C 680.45 175.158 688.559 165.504 696.225 155.607
C 698.06 153.24 699.821 150.77 701.746 148.476
C 702.105 148.048 703.562 146.835 703.186 146.246
C 699.427 146.411 695.672 147.583 691.942 148.092
C 684.7 149.079 677.167 149.643 669.863 149.757
C 665.795 149.821 659.069 151.411 658.838 145.623
C 658.774 144.015 660.15 143.14 661.49 142.596
C 664.664 141.309 668.116 140.528 671.391 139.528
C 685.413 135.246 699.24 130.484 712.889 125.196 Z
M 470.265 454.968
C 476.69 461.303 480.049 468.629 482.184 477.262
C 482.632 477.622 483.641 476.97 484.176 476.763
C 485.893 476.099 487.712 476.209 489.518 476.321
C 495.261 476.677 500.994 478.672 506.29 480.782
C 508.156 481.525 510.893 482.176 512.134 483.89
C 513.092 485.211 512.727 487.472 512.737 489.003
C 512.76 492.731 511.711 498.446 513.464 501.867
C 526.19 493.382 520.131 474.611 510.443 466.352
C 506.375 462.884 501.308 460.961 496.391 459.073
C 491.881 457.342 486.983 456.731 482.394 455.23
C 481.09 454.803 479.605 454.709 478.399 454.043
C 477.702 453.413 477.203 452.553 476.552 451.862
C 474.2 451.301 472.26 454.167 470.265 454.968 Z
M 482.959 493.09
C 482.876 493.614 482.841 494.011 482.934 494.536
C 490.719 498.08 499.125 499.643 506.941 502.951
C 505.54 497.752 506.013 493.056 506.154 487.705
C 504.934 486.82 503.104 486.602 501.68 486.171
C 497.861 485.014 493.757 484.029 489.767 483.75
C 488.702 483.675 487.185 483.281 486.158 483.539
C 485.187 486.751 483.914 489.864 482.959 493.09 Z
M 518.435 464.652
C 520.569 468.556 523.624 472.014 525.172 476.239
C 525.737 476.621 526.427 476.023 527.038 475.827
C 528.326 475.414 529.756 475.256 531.083 474.998
C 535.649 474.11 541.966 472.572 546.538 473.933
C 550.844 475.215 552.203 481.072 553.648 484.672
C 554.065 485.713 554.553 487.483 555.454 488.175
C 561.384 480.368 555.735 470.456 548.016 466.58
C 541.621 463.368 533.478 463.473 526.5 463.926
C 523.844 464.098 521.079 464.787 518.435 464.652 Z
M 526.948 494.106
C 526.896 494.639 526.796 495.183 526.816 495.719
C 531.516 494.838 536.4 494.618 541.14 493.908
C 544.091 493.465 547.367 492.326 550.319 492.29
C 548.623 490.09 547.514 486.835 546.746 484.199
C 546.385 482.961 546.021 480.975 544.79 480.306
C 540.557 480.072 535.95 480.981 531.81 481.809
C 530.698 482.031 528.224 482.035 527.407 482.834
C 527.437 486.462 527.769 490.549 526.948 494.106 Z"
opacity="1" fill="rgb(28,83,135)" fill-rule="evenodd" />
<path d="
M 247.455 962.99
C 249.296 960.674 250.874 958.159 252.632 955.779
C 253.25 955.746 253.917 956.621 254.366 957.036
C 255.652 958.225 257.016 959.298 258.472 960.278
C 262.883 963.249 267.625 965.251 272.827 966.363
C 279.282 967.742 287.181 967.235 292.822 963.558
C 298.13 960.097 299.84 951.729 295.564 946.806
C 292.327 943.079 287.431 941.85 282.868 940.582
C 270.882 937.252 253.608 935.263 250.628 920.534
C 250.095 917.899 250.075 915.232 250.367 912.566
C 251.429 902.87 259.088 895.928 268.215 893.591
C 280.872 890.349 297.555 893.117 307.299 902.4
C 306.317 904.555 304.638 906.45 303.436 908.499
C 303.012 909.221 302.645 910.37 301.953 910.863
C 299.227 909.534 296.805 907.444 294.04 906.077
C 287.25 902.718 279.108 901.391 271.652 902.958
C 264.677 904.422 260.216 910.454 261.714 917.559
C 262.062 919.209 262.589 920.708 263.724 921.99
C 267.135 925.841 272.703 926.741 277.423 927.97
C 288.843 930.942 304.027 933.711 308.177 946.65
C 310.942 955.269 307.577 965.019 300.596 970.551
C 296.994 973.406 292.336 975.171 287.843 976.027
C 277.819 977.936 266.344 976.334 257.31 971.451
C 253.434 969.357 250.499 966.599 247.043 963.968
C 247.23 963.246 247.085 963.568 247.455 962.99 Z"
opacity="1" fill="rgb(26,17,21)" fill-rule="evenodd" />
<path d="
M 298.357 748.438
C 299.037 747.572 301.167 747.873 302.251 747.86
C 306.029 747.813 309.805 747.833 313.583 747.826
C 324.89 747.806 336.198 747.72 347.505 747.776
C 350.838 747.792 354.173 747.86 357.506 747.85
C 358.864 747.845 360.751 747.469 362.029 747.889
C 362.257 748.827 361.898 750.025 361.873 750.997
C 361.801 753.914 361.675 756.929 361.817 759.839
C 349.113 759.214 336.223 759.876 323.5 759.854
C 320.333 759.849 317.167 759.894 314.001 759.891
C 313.13 759.89 311.334 759.577 310.701 760.209
C 310.843 768.955 311.216 777.913 310.757 786.645
C 314.403 787.042 318.334 786.668 322.009 786.653
C 329.176 786.625 336.342 786.651 343.509 786.59
C 346.538 786.564 349.567 786.57 352.596 786.535
C 353.438 786.525 355.101 786.087 355.801 786.52
C 355.831 790.293 355.639 794.073 355.74 797.845
C 345.825 797.749 335.916 798.077 326.002 798.096
C 321.119 798.105 315.425 797.138 310.63 798.117
C 310.806 807.357 311.389 816.973 310.724 826.188
C 317.428 826.57 324.287 826.168 331.008 826.181
C 341.391 826.202 351.87 826.481 362.242 826.085
C 362.365 829.674 361.558 834.243 362.577 837.697
C 354.646 836.532 346.004 837.427 338.001 837.425
C 324.783 837.422 311.449 836.985 298.257 837.568
C 298.666 815.733 298.206 793.843 298.262 772
C 298.282 764.162 297.991 756.267 298.357 748.438 Z"
opacity="1" fill="rgb(38,93,147)" fill-rule="evenodd" />
<path d="
M 341.985 932.612
C 342.689 926.726 343.826 921.31 346.4 915.911
C 352.89 902.296 367.134 892.706 382.269 892.27
C 392.107 891.986 401.21 894.304 409.263 900.151
C 411.125 901.504 412.755 903.049 414.461 904.584
C 414.939 905.014 415.991 905.661 415.867 906.355
C 414.542 908.4 412.08 910.103 410.425 911.941
C 409.918 912.504 409.339 913.446 408.54 913.512
C 404.263 909.081 399.919 905.552 393.93 903.696
C 389.427 902.301 384.905 902.124 380.261 902.722
C 376.553 903.199 372.866 904.272 369.59 906.104
C 354.886 914.327 349.418 934.419 356.626 949.38
C 359.401 955.14 364.339 959.96 369.874 963.07
C 373.205 964.942 377.204 966.281 381.013 966.627
C 384.939 966.983 388.928 966.94 392.753 965.866
C 399.278 964.035 404.304 960.438 408.996 955.656
C 409.816 955.739 410.108 956.27 410.709 956.764
C 412.15 957.95 413.572 959.178 415.028 960.344
C 415.314 960.573 416.877 961.629 416.806 961.858
C 414.046 965.488 409.837 968.628 405.954 970.938
C 388.761 981.167 366.471 977.767 352.83 963.148
C 348.591 958.606 345.532 952.843 343.701 946.944
C 342.261 942.307 341.697 937.449 341.985 932.612 Z"
opacity="1" fill="rgb(26,17,21)" fill-rule="evenodd" />
<path d="
M 363.328 542.526
C 364.885 538.903 370.435 539.984 373.831 539.87
C 384.629 539.509 395.423 539.074 406.221 538.743
C 451.4 537.356 496.609 535.588 541.765 533.595
C 565.772 532.536 589.876 531.264 613.902 530.816
C 618.19 530.736 622.463 530.464 626.747 530.31
C 628.496 530.247 630.446 529.927 632.183 530.127
C 635.71 530.531 635.04 535.516 633.139 537.285
C 629.902 537.974 626.293 537.707 622.995 537.781
C 617.789 537.899 612.596 538.229 607.385 538.358
C 592.628 538.721 577.89 539.467 563.128 539.795
C 523.521 540.674 483.905 542.689 444.319 544.291
C 426.086 545.029 407.821 545.521 389.594 546.447
C 383.656 546.748 377.686 547.083 371.741 547.189
C 369.768 547.224 366.709 548.025 364.861 547.435
C 363.402 546.144 362.953 544.407 363.328 542.526 Z"
opacity="1" fill="rgb(27,83,134)" fill-rule="evenodd" />
<path d="
M 393.812 560.527
C 394.034 559.997 393.917 560.271 394.164 559.702
C 395.074 558.452 397.076 558.778 398.447 558.742
C 402.246 558.642 406.033 558.412 409.829 558.301
C 425.59 557.842 441.369 557.329 457.126 556.664
C 505.073 554.64 553.034 553.064 600.983 551.049
C 615.76 550.428 630.564 549.7 645.35 549.298
C 649.654 549.181 653.945 548.894 658.247 548.778
C 659.972 548.731 662.37 548.36 664.006 548.928
C 665.243 551.76 665.588 552.762 663.92 555.574
C 663.068 556.099 661.091 555.721 660.085 555.778
C 657.055 555.948 654.03 556.169 650.995 556.239
C 640.105 556.489 628.996 556.499 618.143 557.456
C 605.489 558.571 592.618 558.332 579.915 558.861
C 550.481 560.087 521.042 561.469 491.595 562.395
C 466.327 563.189 441.073 564.41 415.806 565.366
C 410.573 565.564 405.337 565.748 400.097 565.918
C 398.616 565.967 395.692 566.735 394.461 565.673
C 393.087 564.486 393.475 562.068 393.812 560.527 Z"
opacity="1" fill="rgb(27,84,134)" fill-rule="evenodd" />
<path d="
M 401.302 747.898
C 416.532 747.939 431.772 747.799 447.005 747.807
C 451.339 747.809 455.673 747.84 460.007 747.847
C 461.331 747.849 463.872 747.304 465.027 747.874
C 465.259 748.996 464.942 750.353 464.918 751.504
C 464.86 754.242 464.72 757.039 464.855 759.774
C 453.906 759.683 442.951 759.777 432.001 759.78
C 426.012 759.781 419.818 759.332 413.855 759.898
C 413.165 761.533 413.658 764.224 413.67 766.003
C 413.702 770.82 413.707 775.638 413.702 780.455
C 413.701 782.014 413.593 783.589 413.645 785.146
C 413.664 785.712 413.52 786.499 413.906 786.911
C 424.302 786.063 435.07 786.817 445.503 786.794
C 448.503 786.787 451.507 786.832 454.507 786.788
C 455.808 786.769 457.695 786.393 458.913 786.851
C 458.717 789.294 458.775 791.808 458.845 794.257
C 458.877 795.363 459.202 797.112 458.844 798.15
C 448.573 798.351 438.274 798.238 427.999 798.238
C 423.281 798.238 418.433 797.913 413.732 798.312
C 412.64 807.48 414.279 816.993 413.692 826.21
C 414.973 826.659 417.112 826.254 418.503 826.256
C 422.17 826.262 425.836 826.254 429.503 826.257
C 441.52 826.266 453.641 826.712 465.647 826.22
C 465.45 829.991 465.256 833.871 465.522 837.648
C 463.953 837.934 462.104 837.647 460.51 837.618
C 457.509 837.563 454.507 837.594 451.506 837.592
C 441.839 837.585 432.172 837.636 422.505 837.617
C 417.671 837.608 412.836 837.578 408.001 837.603
C 405.956 837.614 403.266 838.132 401.304 837.609
C 401.882 814.936 401.251 792.181 401.337 769.498
C 401.364 762.335 400.911 755.046 401.302 747.898 Z"
opacity="1" fill="rgb(37,93,148)" fill-rule="evenodd" />
<path d="
M 423.999 581.618
C 424.134 580.184 424.351 578.825 425.51 577.853
C 427.566 577.464 429.839 577.717 431.934 577.627
C 437.12 577.403 442.308 577.259 447.492 577.044
C 460.654 576.501 473.825 576.061 486.99 575.531
C 532.369 573.704 577.77 572.207 623.141 570.142
C 640.254 569.363 657.377 568.848 674.488 568.044
C 679.406 567.813 684.344 567.721 689.259 567.41
C 691.115 567.293 694.301 566.674 695.979 567.544
C 697.448 569.792 698.022 572.167 695.786 574.199
C 693.999 574.899 691.64 574.667 689.752 574.71
C 686.353 574.787 682.961 574.994 679.564 575.071
C 668.028 575.332 656.487 575.792 644.967 576.408
C 615.466 577.983 585.924 578.824 556.394 579.842
C 544.548 580.251 532.694 581.021 520.841 581.298
C 496.087 581.876 471.331 583.391 446.59 584.365
C 442.179 584.538 437.765 584.674 433.354 584.865
C 431.051 584.965 428.406 585.456 426.126 585.09
C 424.602 584.846 424.013 582.937 423.999 581.618 Z"
opacity="1" fill="rgb(26,83,133)" fill-rule="evenodd" />
<path d="
M 425.854 393.658
C 430.519 387.045 435.313 380.512 439.72 373.71
C 441.125 371.542 442.548 369.386 443.955 367.22
C 444.652 366.147 445.418 364.652 446.505 363.922
C 447.465 363.277 448.944 363.349 450.052 363.207
C 452.314 362.916 454.604 362.564 456.812 361.979
C 464.377 359.974 471.9 357.015 479.169 354.13
C 479.546 354.887 479.362 356.013 479.511 356.87
C 479.947 359.373 480.153 361.912 480.628 364.411
C 481.03 366.525 482.307 369.171 482.226 371.301
C 467.442 375.698 453.086 381.377 439.032 387.705
C 435.674 389.217 432.351 390.775 429.041 392.387
C 428.501 392.65 426.275 394.115 425.854 393.658 Z"
opacity="1" fill="rgb(244,222,199)" fill-rule="evenodd" />
<path d="
M 445.277 411.974
C 446.407 410.068 447.856 409.38 450.042 409.997
C 451.455 411.381 452.384 413.214 453.354 414.916
C 455.598 418.851 457.582 422.938 459.464 427.057
C 460.265 428.808 462 431.247 461.605 433.254
C 460.757 434.823 457.904 436.593 456.286 435.256
C 454.621 433.881 454.275 431.161 453.437 429.273
C 451.687 425.333 449.749 421.512 447.489 417.838
C 446.438 416.129 444.755 414.084 445.277 411.974 Z"
opacity="1" fill="rgb(19,77,127)" fill-rule="evenodd" />
<path d="
M 453.112 893.642
C 460.161 893.138 467.26 893.463 474.328 893.425
C 486.017 893.36 500.452 891.873 509.82 900.414
C 520.835 910.455 520.417 930.64 507.806 939.262
C 505.067 941.134 501.164 942.937 497.777 942.834
C 499.462 944.714 500.788 947.215 502.267 949.28
C 505.783 954.189 509.343 959.101 512.667 964.142
C 515.16 967.923 517.574 972.068 520.513 975.502
C 519.669 975.965 518.007 975.615 517.046 975.616
C 513.993 975.617 510.839 975.75 507.81 975.515
C 505.751 973.837 504.195 970.444 502.72 968.226
C 499.322 963.115 495.679 958.16 492.393 952.971
C 490.787 950.436 489.262 947.306 487.186 945.14
C 485.451 944.623 483.337 944.971 481.536 944.969
C 477.787 944.963 474.037 944.945 470.288 944.914
C 468.949 944.903 465.651 944.335 464.67 945.293
C 464.403 952.171 464.732 959.115 464.71 966.002
C 464.703 968.167 464.702 970.333 464.705 972.498
C 464.705 973.408 464.49 974.763 464.778 975.616
C 461.087 975.356 456.98 975.062 453.304 975.622
C 453.037 975.217 453.206 974.324 453.215 973.824
C 453.242 972.385 453.264 970.949 453.255 969.51
C 453.224 964.176 453.252 958.842 453.258 953.508
C 453.271 939.843 453.285 926.175 453.205 912.51
C 453.168 906.242 453.453 899.898 453.112 893.642 Z
M 464.693 903.617
C 464.781 911.408 464.766 919.206 464.765 927
C 464.765 928.998 464.767 930.997 464.762 932.996
C 464.761 933.673 464.538 934.885 464.881 935.42
C 472.054 934.425 479.768 935.295 487.009 935.175
C 491.781 935.095 496.685 934.685 500.826 932.062
C 510.062 926.212 508.222 910.647 499.229 905.629
C 494.753 903.131 489.426 903.324 484.458 903.345
C 477.886 903.373 471.248 903.194 464.693 903.617 Z"
opacity="1" fill="rgb(26,18,22)" fill-rule="evenodd" />
<path d="
M 455.366 407.477
C 456.347 406.458 457.52 405.339 459.01 405.302
C 460.996 405.763 461.877 408.252 462.749 409.867
C 464.618 413.334 466.178 416.955 468.022 420.433
C 468.858 422.009 470.412 423.907 470.688 425.685
C 471.044 427.983 467.781 430.65 465.685 429.339
C 462.629 425.49 460.758 420.204 458.504 415.854
C 457.281 413.493 455.317 410.573 455.095 407.886
C 455.185 407.75 455.276 407.613 455.366 407.477 Z"
opacity="1" fill="rgb(22,79,132)" fill-rule="evenodd" />
<path d="
M 470.265 454.968
C 472.26 454.167 474.2 451.301 476.552 451.862
C 477.203 452.553 477.702 453.413 478.399 454.043
C 479.605 454.709 481.09 454.803 482.394 455.23
C 486.983 456.731 491.881 457.342 496.391 459.073
C 501.308 460.961 506.375 462.884 510.443 466.352
C 520.131 474.611 526.19 493.382 513.464 501.867
C 511.711 498.446 512.76 492.731 512.737 489.003
C 512.727 487.472 513.092 485.211 512.134 483.89
C 510.893 482.176 508.156 481.525 506.29 480.782
C 500.994 478.672 495.261 476.677 489.518 476.321
C 487.712 476.209 485.893 476.099 484.176 476.763
C 483.641 476.97 482.632 477.622 482.184 477.262
C 480.049 468.629 476.69 461.303 470.265 454.968 Z"
opacity="1" fill="rgb(247,226,205)" fill-rule="evenodd" />
<path d="
M 709.781 432.291
C 709.523 433.039 710.052 433.964 709.924 434.781
C 709.072 437.422 707.12 439.752 705.523 441.974
C 701.512 447.55 697.093 452.842 691.968 457.43
C 686.706 462.141 681.287 466.649 675.185 470.255
C 655.461 481.909 632.014 486.309 609.299 485.31
C 603.102 485.037 597.045 483.943 590.941 482.936
C 587.263 482.33 583.481 482.339 579.83 481.634
C 577.763 481.234 575.612 480.896 573.51 480.744
C 573.117 480.716 571.57 481.421 571.569 481.42
C 570.034 480.269 568.324 479.857 566.51 481.186
C 565.867 481.127 565.14 481.201 564.53 481.009
C 564.076 477.449 563.734 474.392 562.033 471.126
C 555.014 457.654 538.967 456.184 525.456 457.378
C 522.711 457.621 519.96 457.846 517.244 458.327
C 515.687 458.602 513.736 459.282 512.154 459.045
C 510.79 458.841 509.547 457.817 508.369 457.158
C 506.001 455.831 503.534 454.58 501.054 453.475
C 496.053 451.245 490.586 450.848 485.496 448.998
C 486.083 447.904 488.278 447.149 489.449 446.703
C 493.005 445.347 496.711 444.38 500.26 443.01
C 516.713 436.66 535.764 433.921 553.099 437.653
C 569.342 441.149 584.961 447.263 601.157 451.074
C 632.203 458.378 665.627 458.127 694.307 442.964
C 699.945 439.983 704.807 436.212 709.781 432.291 Z"
opacity="1" fill="rgb(242,221,199)" fill-rule="evenodd" />
<path d="
M 492.905 748.586
C 492.975 748.377 493.045 748.168 493.114 747.958
C 511.24 747.764 529.378 747.845 547.509 747.856
C 551.843 747.859 556.177 747.897 560.51 747.888
C 561.213 747.887 564.507 747.42 564.826 747.961
C 564.555 751.783 564.434 755.894 564.673 759.718
C 558.118 759.639 551.557 759.732 545.001 759.734
C 541.847 759.735 538.13 759.228 535.053 759.927
C 534.954 777.444 535.247 794.98 535.254 812.502
C 535.256 818.003 535.238 823.503 535.21 829.003
C 535.196 831.818 535.42 834.756 535.054 837.545
C 531 837.7 526.837 837.868 522.781 837.754
C 522.807 811.889 522.078 785.955 522.574 760.099
C 519.31 759.561 515.803 759.864 512.5 759.843
C 506.021 759.802 499.54 759.815 493.061 759.731
C 492.811 756.047 492.95 752.288 492.905 748.586 Z"
opacity="1" fill="rgb(42,94,148)" fill-rule="evenodd" />
<path d="
M 558.949 893.798
C 562.478 893.726 566.575 893.08 570.051 893.763
C 570.619 902.118 570.269 910.618 570.281 918.998
C 570.309 937.863 569.973 956.763 570.355 975.623
C 566.587 975.817 562.742 975.546 558.968 975.498
C 558.885 948.268 558.878 921.029 558.949 893.798 Z"
opacity="1" fill="rgb(27,19,22)" fill-rule="evenodd" />
<path d="
M 602.049 748.116
C 606.183 747.836 610.559 747.826 614.695 748.103
C 614.552 768.066 614.741 788.038 614.775 808.003
C 614.786 814.669 614.767 821.336 614.764 828.003
C 614.762 831.159 614.373 834.609 614.791 837.732
C 610.644 837.734 606.314 838.056 602.188 837.692
C 602.898 819.686 602.141 801.525 602.106 783.504
C 602.091 776.171 602.135 768.838 602.194 761.506
C 602.23 757.079 602.492 752.523 602.049 748.116 Z"
opacity="1" fill="rgb(41,93,147)" fill-rule="evenodd" />
<path d="
M 615.673 893.708
C 620.099 893.4 624.577 893.576 629.013 893.586
C 632.013 893.592 635.013 893.597 638.012 893.594
C 651.117 893.581 667.49 891.831 674.934 905.23
C 675.966 907.087 676.591 909.06 676.939 911.151
C 677.371 913.747 677.285 916.373 676.755 918.95
C 675.951 922.855 674.189 926.918 670.893 929.355
C 669.728 930.217 668.516 930.933 667.26 931.651
C 666.337 932.179 665.512 932.068 665.005 933.093
C 669.813 934.749 674.553 936.639 677.671 940.943
C 684.973 951.024 681.432 966.114 670.356 971.766
C 663.462 975.283 655.558 975.419 648.001 975.42
C 640.835 975.42 633.668 975.444 626.502 975.472
C 623.109 975.485 619.168 974.927 615.842 975.597
C 615.13 974.404 615.77 970.992 615.766 969.505
C 615.75 964.171 615.758 958.837 615.749 953.504
C 615.715 933.583 616.124 913.622 615.673 893.708 Z
M 626.977 904.634
C 626.425 912.701 627.46 920.869 626.929 928.942
C 633.947 928.049 641.434 928.842 648.508 928.746
C 653.175 928.682 657.751 928.512 661.777 925.84
C 669.018 921.034 667.477 909.105 660.241 905.16
C 656.059 902.879 650.869 903.304 646.277 903.348
C 639.985 903.409 633.334 902.754 627.098 903.548
C 627.004 904.345 627.043 903.983 626.977 904.634 Z
M 626.974 939.628
C 626.332 948.259 627.89 957.022 626.998 965.648
C 634.853 965.215 642.768 965.49 650.63 965.541
C 655.498 965.573 660.832 965.882 665.046 962.992
C 672.762 957.702 671.754 944.917 663.663 940.473
C 660.34 938.647 656.403 938.379 652.684 938.28
C 647.956 938.155 643.224 938.245 638.496 938.26
C 634.832 938.272 630.664 937.747 627.069 938.515
C 627.02 939.365 627.06 938.995 626.974 939.628 Z"
opacity="1" fill="rgb(28,19,24)" fill-rule="evenodd" />
<path d="
M 661.892 748.548
C 661.988 748.363 662.084 748.178 662.18 747.993
C 665.569 747.832 669.062 747.639 672.451 747.896
C 673.612 750.691 676.383 753.302 678.269 755.657
C 681.889 760.178 685.453 764.761 688.984 769.352
C 701.219 785.26 713.163 801.46 725.589 817.205
C 726.208 815.566 725.636 812.77 725.618 811.003
C 725.572 806.398 725.619 801.791 725.61 797.186
C 725.577 780.933 725.7 764.649 725.448 748.402
C 725.823 747.845 727.621 748.042 728.323 748.046
C 731.128 748.062 734.94 747.375 737.613 748.187
C 738.526 770.544 737.709 793.119 737.714 815.504
C 737.716 822.861 737.12 830.499 737.625 837.777
C 736.977 838.08 735.425 837.765 734.705 837.76
C 732.123 837.742 729.412 837.976 726.859 837.585
C 725.439 836.315 724.496 834.263 723.312 832.76
C 720.183 828.788 717.213 824.691 714.117 820.692
C 705.01 808.928 696.024 797.041 686.722 785.433
C 683.456 781.358 679.946 777.313 676.988 773.011
C 676.302 772.013 675.669 770.942 674.882 770.024
C 674.656 769.759 674.528 769.094 674.206 769.227
C 673.867 769.368 674.15 769.961 674.148 770.328
C 674.143 771.215 674.215 772.103 674.204 772.993
C 674.151 777.162 674.161 781.33 674.157 785.499
C 674.149 796.436 674.238 807.374 674.135 818.311
C 674.075 824.682 673.443 831.414 674.154 837.747
C 670.017 837.664 665.866 837.619 661.733 837.815
C 661.482 834.425 661.762 830.908 661.761 827.501
C 661.76 820.668 661.747 813.834 661.751 807.001
C 661.763 787.517 661.667 768.03 661.892 748.548 Z"
opacity="1" fill="rgb(34,90,145)" fill-rule="evenodd" />
<path d="
M 719.66 893.645
C 725.399 893.144 731.245 893.429 737.005 893.438
C 750.572 893.458 764.222 893.972 777.78 893.545
C 777.978 896.796 778.207 900.417 777.869 903.654
C 762.348 904.102 746.696 902.695 731.191 903.668
C 730.761 912.12 731.8 920.683 731.171 929.128
C 740.247 928.091 749.873 928.921 759.007 928.924
C 762.174 928.926 765.341 928.944 768.509 928.93
C 769.87 928.924 771.521 928.62 772.842 928.976
C 772.994 932.105 773.116 935.565 772.809 938.682
C 759.006 938.507 744.958 937.955 731.172 938.652
C 730.807 940.867 731.145 943.254 731.177 945.5
C 731.24 949.833 731.238 954.169 731.239 958.502
C 731.239 960.209 731.143 961.936 731.216 963.641
C 731.241 964.223 731.073 964.976 731.418 965.437
C 735.485 964.86 739.897 965.287 744.004 965.286
C 751.826 965.284 759.648 965.273 767.469 965.299
C 770.367 965.309 773.265 965.341 776.162 965.354
C 776.79 965.357 778.429 965.06 778.81 965.54
C 778.896 968.759 778.403 972.294 778.932 975.464
C 765.342 975.775 751.623 975.642 738.05 975.555
C 734.035 975.53 730.019 975.545 726.005 975.559
C 724.03 975.565 721.718 975.265 719.788 975.654
C 719.164 973.732 719.792 970.576 719.777 968.508
C 719.737 962.841 719.777 957.174 719.773 951.507
C 719.761 932.277 720.571 912.853 719.66 893.645 Z"
opacity="1" fill="rgb(28,20,24)" fill-rule="evenodd" />
<path d="
M 778.484 789.104
C 779.754 780.826 781.801 773.453 786.517 766.395
C 798.07 749.109 821.264 742.461 840.72 748.988
C 848.031 751.441 853.122 755.736 858.865 760.619
C 857.923 762.789 854.966 764.602 853.484 766.492
C 853 767.11 852.317 768.32 851.481 768.516
C 850.921 768.648 850.169 767.756 849.8 767.431
C 848.52 766.301 847.262 765.198 845.866 764.208
C 841.866 761.37 836.795 759.296 831.961 758.497
C 815.73 755.814 799.267 763.997 793.389 779.776
C 787.926 794.441 791.475 814.153 805.62 822.747
C 816.644 829.445 830.217 829.605 841.4 823.207
C 844.588 821.383 848.87 818.869 850.51 815.408
C 851.033 814.306 850.88 812.905 850.964 811.719
C 851.201 808.374 850.991 805.001 851.129 801.655
C 849.109 800.773 845.704 801.417 843.501 801.408
C 837.824 801.387 832.136 801.497 826.464 801.454
C 826.314 797.734 826.784 793.914 826.278 790.216
C 838.451 790.465 850.71 790.384 862.881 790.073
C 862.143 796.721 862.828 803.807 862.826 810.499
C 862.824 819.536 862.293 828.782 862.794 837.793
C 859.435 837.752 856.064 837.746 852.703 837.752
C 852.258 836.903 852.39 835.726 852.356 834.79
C 852.278 832.626 852.329 830.474 852.18 828.314
C 848.665 831.393 844.23 833.768 840.014 835.73
C 823.072 843.613 800.951 838.156 789.013 823.843
C 781.047 814.294 777.276 801.452 778.484 789.104 Z"
opacity="1" fill="rgb(35,90,147)" fill-rule="evenodd" />

</svg>